# xmcd CD database file
#
# Track frame offsets:
#	150
#	22557
#	38198
#	70451
#	87384
#	97870
#	117214
#	137531
#
# Disc length: 2077 seconds
#
# Revision: 1
# Processed by: cddbd v1.5.1PL0 Copyright (c) Steve Scherf et al.
# Submitted via: CDex 1.51
#
DISCID=5a081b08
DTITLE=Rita Cervellati - Let me tell you
DYEAR=2005
DGENRE=Jazz
TTITLE0=Indiana
TTITLE1=Good ol' lady
TTITLE2=Malafemmina
TTITLE3=Celia
TTITLE4=Something to live for
TTITLE5=Hallucinations
TTITLE6=World blues
TTITLE7=Lush life
EXTD=YEAR: 2005
EXTT0=
EXTT1=
EXTT2=
EXTT3=
EXTT4=
EXTT5=
EXTT6=
EXTT7=
PLAYORDER=
